<?xml version="1.0" encoding="UTF-8"?>
<!DOCTYPE svg PUBLIC "-//W3C//DTD SVG 1.1//EN" "http://www.w3.org/Graphics/SVG/1.1/DTD/svg11.dtd">
<svg xmlns="http://www.w3.org/2000/svg" version="1.1" width="32px" height="32px" style="shape-rendering:geometricPrecision; text-rendering:geometricPrecision; image-rendering:optimizeQuality; fill-rule:evenodd; clip-rule:evenodd" xmlns:xlink="http://www.w3.org/1999/xlink">
<g><path style="opacity:0.895" fill="#050c09" d="M 6.5,2.5 C 5.44802,2.35055 4.44802,2.51722 3.5,3C 4.81656,5.93653 4.81656,8.76986 3.5,11.5C 4.10005,7.48361 3.10005,3.98361 0.5,1C 2.88054,0.261544 4.88054,0.761544 6.5,2.5 Z"/></g>
<g><path style="opacity:0.995" fill="#23a548" d="M 6.5,2.5 C 8.07249,3.68729 9.73915,4.68729 11.5,5.5C 10.2617,5.81001 10.2617,6.31001 11.5,7C 6.87923,6.30192 6.54589,7.30192 10.5,10C 9.42809,11.2837 8.09475,11.6171 6.5,11C 7.56341,12.1882 8.89674,12.6882 10.5,12.5C 10.6567,13.8734 10.49,15.2068 10,16.5C 9.28248,15.5494 8.44915,15.3828 7.5,16C 8.55054,17.3848 9.88387,18.3848 11.5,19C 10.5,19.3333 9.5,19.6667 8.5,20C 10.3146,20.7568 11.9812,21.5902 13.5,22.5C 12.4324,23.4345 11.099,23.7678 9.5,23.5C 7.19006,21.8655 4.85672,20.1988 2.5,18.5C 2.19845,15.9407 2.53178,13.6074 3.5,11.5C 4.81656,8.76986 4.81656,5.93653 3.5,3C 4.44802,2.51722 5.44802,2.35055 6.5,2.5 Z"/></g>
<g><path style="opacity:0.906" fill="#030904" d="M 6.5,2.5 C 13.8096,4.23836 19.9762,7.90502 25,13.5C 25.5837,16.2567 25.2504,18.9234 24,21.5C 23.3292,22.2524 22.4959,22.5858 21.5,22.5C 20.5,22.1667 19.8333,21.5 19.5,20.5C 20.4959,20.4142 21.3292,20.7476 22,21.5C 23.2131,19.8697 24.0464,18.0364 24.5,16C 22.9522,13.7356 21.2855,11.569 19.5,9.5C 16.9763,8.40768 14.643,7.07434 12.5,5.5C 12.1667,5.5 11.8333,5.5 11.5,5.5C 9.73915,4.68729 8.07249,3.68729 6.5,2.5 Z"/></g>
<g><path style="opacity:1" fill="#23b04b" d="M 12.5,5.5 C 14.643,7.07434 16.9763,8.40768 19.5,9.5C 21.2855,11.569 22.9522,13.7356 24.5,16C 24.0464,18.0364 23.2131,19.8697 22,21.5C 21.3292,20.7476 20.4959,20.4142 19.5,20.5C 18.2089,19.4583 18.2089,18.2917 19.5,17C 19.1667,16.8333 18.8333,16.6667 18.5,16.5C 17.7492,17.376 17.2492,18.376 17,19.5C 15.161,17.2894 15.3276,15.1227 17.5,13C 16.2559,12.5439 15.4226,13.0439 15,14.5C 14.3104,10.8134 13.477,7.81339 12.5,5.5 Z"/></g>
<g><path style="opacity:0.998" fill="#b17b56" d="M 11.5,5.5 C 11.8333,5.5 12.1667,5.5 12.5,5.5C 13.477,7.81339 14.3104,10.8134 15,14.5C 15.4226,13.0439 16.2559,12.5439 17.5,13C 15.3276,15.1227 15.161,17.2894 17,19.5C 17.2492,18.376 17.7492,17.376 18.5,16.5C 18.8333,16.6667 19.1667,16.8333 19.5,17C 18.2089,18.2917 18.2089,19.4583 19.5,20.5C 19.8333,21.5 20.5,22.1667 21.5,22.5C 21.8333,23.1667 22.1667,23.8333 22.5,24.5C 23.1495,26.4352 23.4828,28.4352 23.5,30.5C 19.9878,31.0545 16.9878,30.3878 14.5,28.5C 16.2517,28.5824 17.2517,27.7491 17.5,26C 16.9283,23.9264 15.595,22.7598 13.5,22.5C 11.9812,21.5902 10.3146,20.7568 8.5,20C 9.5,19.6667 10.5,19.3333 11.5,19C 9.88387,18.3848 8.55054,17.3848 7.5,16C 8.44915,15.3828 9.28248,15.5494 10,16.5C 10.49,15.2068 10.6567,13.8734 10.5,12.5C 8.89674,12.6882 7.56341,12.1882 6.5,11C 8.09475,11.6171 9.42809,11.2837 10.5,10C 6.54589,7.30192 6.87923,6.30192 11.5,7C 10.2617,6.31001 10.2617,5.81001 11.5,5.5 Z"/></g>
<g><path style="opacity:0.905" fill="#000401" d="M 2.5,18.5 C 4.85672,20.1988 7.19006,21.8655 9.5,23.5C 6.03234,23.3588 3.69901,21.6921 2.5,18.5 Z"/></g>
<g><path style="opacity:1" fill="#0e0b09" d="M 13.5,22.5 C 15.595,22.7598 16.9283,23.9264 17.5,26C 17.2517,27.7491 16.2517,28.5824 14.5,28.5C 14.9528,27.5416 15.6195,26.7083 16.5,26C 14.1671,24.957 11.8337,24.1237 9.5,23.5C 11.099,23.7678 12.4324,23.4345 13.5,22.5 Z"/></g>
<g><path style="opacity:0.94" fill="#010002" d="M 22.5,24.5 C 24.1128,26.4605 25.1128,28.7939 25.5,31.5C 20.8333,31.5 16.1667,31.5 11.5,31.5C 12.1667,30.1667 13.1667,29.1667 14.5,28.5C 16.9878,30.3878 19.9878,31.0545 23.5,30.5C 23.4828,28.4352 23.1495,26.4352 22.5,24.5 Z"/></g>
</svg>
